HIERARCHY
ROOT root
{
	OFFSET 0.000000 0.000000 0.000000
	CHANNELS 6 Xposition Yposition Zposition Zrotation Yrotation Xrotation
	JOINT lhip
	{
		OFFSET 0.058581 -0.082280 -0.017664
		CHANNELS 3 Zrotation Yrotation Xrotation
		JOINT lknee
		{
			OFFSET 0.043451 -0.386469 0.008037
			CHANNELS 3 Zrotation Yrotation Xrotation
			JOINT lankle
			{
				OFFSET -0.014790 -0.426874 -0.037428
				CHANNELS 3 Zrotation Yrotation Xrotation
				JOINT ltoe
				{
					OFFSET 0.041054 -0.060286 0.122042
					CHANNELS 3 Zrotation Yrotation Xrotation
					End Site
					{
						OFFSET 0.000000 0.000000 0.000000
					}
				}
			}
		}
	}
	JOINT rhip
	{
		OFFSET -0.060310 -0.090513 -0.013543
		CHANNELS 3 Zrotation Yrotation Xrotation
		JOINT rknee
		{
			OFFSET -0.043257 -0.383688 -0.004843
			CHANNELS 3 Zrotation Yrotation Xrotation
			JOINT rankle
			{
				OFFSET 0.019056 -0.420046 -0.034562
				CHANNELS 3 Zrotation Yrotation Xrotation
				JOINT rtoe
				{
					OFFSET -0.034840 -0.062106 0.130323
					CHANNELS 3 Zrotation Yrotation Xrotation
					End Site
					{
						OFFSET 0.000000 0.000000 0.000000
					}
				}
			}
		}
	}
	JOINT lowerback
	{
		OFFSET 0.004439 0.124404 -0.038385
		CHANNELS 3 Zrotation Yrotation Xrotation
		JOINT upperback
		{
			OFFSET 0.004488 0.137956 0.026820
			CHANNELS 3 Zrotation Yrotation Xrotation
			JOINT chest
			{
				OFFSET -0.002265 0.056032 0.002855
				CHANNELS 3 Zrotation Yrotation Xrotation
				JOINT lowerneck
				{
					OFFSET -0.013390 0.211636 -0.033468
					CHANNELS 3 Zrotation Yrotation Xrotation
					JOINT upperneck
					{
						OFFSET 0.010113 0.088937 0.050410
						CHANNELS 3 Zrotation Yrotation Xrotation
						End Site
						{
							OFFSET 0.000000 0.000000 0.000000
						}
					}
				}
				JOINT lclavicle
				{
					OFFSET 0.071702 0.114000 -0.018898
					CHANNELS 3 Zrotation Yrotation Xrotation
					JOINT lshoulder
					{
						OFFSET 0.122921 0.045205 -0.019046
						CHANNELS 3 Zrotation Yrotation Xrotation
						JOINT lelbow
						{
							OFFSET 0.255332 -0.015649 -0.022946
							CHANNELS 3 Zrotation Yrotation Xrotation
							JOINT lwrist
							{
								OFFSET 0.265709 0.012698 -0.007375
								CHANNELS 3 Zrotation Yrotation Xrotation
								End Site
								{
									OFFSET 0.000000 0.000000 0.000000
								}
							}
						}
					}
				}
				JOINT rclavicle
				{
					OFFSET -0.082954 0.112472 -0.023707
					CHANNELS 3 Zrotation Yrotation Xrotation
					JOINT rshoulder
					{
						OFFSET -0.113228 0.046853 -0.008472
						CHANNELS 3 Zrotation Yrotation Xrotation
						JOINT relbow
						{
							OFFSET -0.260127 -0.014369 -0.031269
							CHANNELS 3 Zrotation Yrotation Xrotation
							JOINT rwrist
							{
								OFFSET -0.269108 0.006794 -0.006027
								CHANNELS 3 Zrotation Yrotation Xrotation
								End Site
								{
									OFFSET 0.000000 0.000000 0.000000
								}
							}
						}
					}
				}
			}
		}
	}
}
MOTION
Frames: 16
Frame Time: 0.033333
-0.524128 0.250435 0.982658 93.730023 0.743717 89.985867 4.317924 0.875516 -4.199801 -4.918974 -7.451707 12.843905 1.983240 3.197313 -13.393892 0.000000 -0.000000 0.000000 -1.870670 -4.912363 -6.042625 0.125028 -1.428429 14.912561 2.796682 -3.780330 -15.402919 0.000000 -0.000000 0.000000 -0.701754 1.180930 -2.572808 3.578520 -4.352730 0.458854 -0.554452 -2.095478 2.281353 2.380440 6.395530 10.368653 -0.322794 1.648781 10.691135 -17.046387 5.083784 -0.409924 -67.660894 -13.366354 18.020280 0.995593 -19.488849 24.917824 5.547361 5.322841 -5.809636 16.093995 -5.229255 -1.567014 67.118031 9.451756 17.041046 -4.150819 15.354642 6.989481 11.991408 0.907745 -23.900959 
-0.524654 0.250557 0.982611 93.686864 0.829362 89.997097 4.474468 0.710025 -4.244249 -5.070835 -7.352553 12.907668 1.920843 3.484103 -13.375685 0.000000 -0.000000 0.000000 -1.868457 -4.457606 -5.914012 0.294885 -1.611255 14.901048 2.618401 -3.965066 -15.301030 0.000000 -0.000000 0.000000 -0.394623 1.115847 -2.764504 3.323257 -4.029514 0.637521 -0.650679 -2.176021 2.326180 3.150058 6.986439 10.707553 -1.122449 0.977148 11.232441 -16.483323 5.082669 0.367475 -67.995480 -13.917410 17.635955 0.503874 -18.775133 27.234597 -11.280236 4.204030 -8.912669 15.672676 -5.371243 -0.809466 68.007498 9.896447 17.667021 -5.612753 15.830512 6.497956 16.606400 1.828600 -25.102756 
-0.525667 0.251175 0.982508 93.709946 0.814941 89.944347 4.450587 0.582222 -4.409120 -5.071338 -7.348146 13.170543 1.963591 3.602684 -13.382392 0.000000 -0.000000 0.000000 -1.954037 -4.466621 -5.929306 0.349842 -1.749470 15.065595 2.673075 -4.007066 -15.265305 0.000000 -0.000000 0.000000 -0.328062 1.083541 -2.530604 3.293944 -3.976573 0.473150 -0.689400 -2.177241 2.376693 3.086112 7.001102 10.860838 -1.235788 0.970422 11.414213 -16.489376 5.219689 0.336177 -68.117437 -13.941551 17.777617 0.468162 -18.758519 27.532408 -11.471720 4.201139 -9.432860 15.722589 -5.476997 -0.953248 68.026421 9.888892 17.680284 -5.723219 15.995182 6.638872 16.493728 2.136053 -25.093687 
-0.526546 0.251610 0.982435 93.759770 0.795251 89.852870 4.467610 0.654480 -4.498695 -5.194716 -7.447987 13.410836 1.915352 3.596372 -13.404484 0.000000 -0.000000 0.000000 -1.984702 -4.521983 -5.900081 0.354554 -1.664678 15.139196 2.707261 -4.049128 -15.301500 0.000000 -0.000000 0.000000 -0.275157 1.055789 -2.314318 3.262630 -3.954104 0.380125 -0.721807 -2.158244 2.358224 3.015697 7.087143 11.057877 -1.218523 1.119352 11.690923 -16.542662 5.275061 0.261622 -68.146772 -13.879095 17.834653 0.338696 -18.703500 27.616786 -11.312592 4.366660 -9.677521 15.770128 -5.493000 -0.980914 67.932942 9.970570 17.716253 -5.697086 16.204269 6.579080 16.333879 2.107269 -25.030576 
-0.527258 0.251796 0.982438 93.754332 0.799159 89.842202 4.494634 0.578342 -4.559730 -5.242020 -7.390707 13.448762 1.944853 3.627793 -13.384991 0.000000 -0.000000 0.000000 -2.004167 -4.520107 -5.933143 0.357566 -1.706526 15.181293 2.713053 -3.970550 -15.300231 0.000000 -0.000000 0.000000 -0.258171 1.120377 -2.277337 3.265779 -3.917025 0.431883 -0.727390 -2.179283 2.347266 2.996545 7.063916 11.265456 -1.210185 1.066824 11.819404 -16.615269 5.236392 0.278963 -68.126314 -13.834833 17.843163 0.392323 -18.886482 27.477660 -11.280813 4.383166 -9.609558 15.823668 -5.476388 -1.001833 67.871245 9.986918 17.680531 -5.826730 16.432588 6.694806 16.691801 2.065966 -24.803307 
-0.527814 0.251934 0.982357 93.803146 0.826655 89.798764 4.534966 0.657210 -4.622573 -5.268627 -7.464948 13.566181 1.957097 3.618872 -13.368648 0.000000 -0.000000 0.000000 -1.988774 -4.649133 -5.889362 0.375044 -1.630608 15.150783 2.670595 -3.933061 -15.197970 0.000000 -0.000000 0.000000 -0.230174 1.164392 -2.262947 3.276053 -3.897262 0.493585 -0.728409 -2.126066 2.393295 2.972387 7.011334 11.510207 -1.269767 1.116439 11.962324 -16.668658 5.285261 0.186613 -68.158029 -13.813720 17.884215 0.372332 -18.864121 27.437935 -10.676766 4.382380 -9.701735 15.774498 -5.556096 -0.983670 67.859478 10.010296 17.720696 -5.718419 16.708312 6.787106 16.319577 2.072488 -25.111887 
-0.528938 0.252137 0.982297 93.924231 0.769595 89.845654 4.440519 0.523931 -4.849062 -5.271526 -7.441058 13.727651 1.977526 3.624566 -13.350945 0.000000 -0.000000 0.000000 -2.050315 -4.604117 -5.981447 0.342923 -1.394494 15.165593 2.610623 -3.920174 -15.367538 0.000000 -0.000000 0.000000 -0.312558 1.253327 -2.346212 3.279419 -3.874793 0.584615 -0.734583 -2.142595 2.544790 3.017200 7.144432 11.680680 -1.307056 1.264388 11.999298 -16.663205 5.310349 0.207377 -68.177692 -14.054219 17.977654 0.402967 -18.774532 27.377882 -10.543381 4.250347 -9.919328 15.797574 -5.622448 -1.061450 67.849066 10.056772 17.867683 -5.735937 16.784381 6.859851 16.336052 2.148497 -25.284453 
-0.529875 0.252158 0.982267 93.836726 0.761319 89.765091 4.431317 0.465116 -4.794636 -5.296998 -7.382719 13.713032 1.907660 3.730116 -13.336802 0.000000 -0.000000 0.000000 -2.032670 -4.532818 -6.020824 0.279204 -1.272482 15.312794 2.602622 -3.902773 -15.448810 0.000000 -0.000000 0.000000 -0.263345 1.306182 -2.193317 3.230255 -3.794678 0.669003 -0.803233 -2.090667 2.561710 3.073306 7.160049 11.829539 -1.266661 1.113518 12.296139 -16.618883 5.303695 0.166981 -68.074827 -14.052831 17.955291 0.339596 -18.870382 27.373242 -10.796829 4.250696 -9.942987 15.782737 -5.572901 -1.023632 67.949098 10.170634 17.890816 -5.701452 16.700350 6.826433 16.390049 2.161254 -25.253195 
-0.530865 0.252322 0.982245 93.824394 0.744888 89.718983 4.407571 0.483142 -4.822507 -5.340062 -7.495715 13.740765 2.085243 3.799070 -13.376199 0.000000 -0.000000 0.000000 -2.034142 -4.428137 -6.067607 0.253539 -1.219669 15.367824 2.478268 -3.995211 -15.562959 0.000000 -0.000000 0.000000 -0.249661 1.305118 -2.079049 3.188179 -3.709348 0.682064 -0.822836 -2.046571 2.668900 3.081629 7.195226 12.114126 -1.245868 1.158336 12.462703 -16.531180 5.242293 0.166136 -68.080072 -14.053594 17.914092 0.396484 -18.868716 27.269962 -10.788531 4.519359 -9.860906 15.725960 -5.467953 -0.954222 68.067910 10.195029 17.899340 -5.744162 16.675704 6.861454 16.460322 2.135943 -25.066781 
-0.532383 0.252557 0.982234 93.926525 0.704789 89.667932 4.390717 0.495800 -4.997795 -5.474080 -7.569494 13.969668 1.979068 3.788242 -13.302391 0.000000 -0.000000 0.000000 -2.103705 -4.407722 -6.180379 0.270282 -1.224481 15.543837 2.511296 -3.957646 -15.592241 0.000000 -0.000000 0.000000 -0.303002 1.339718 -1.967579 3.205666 -3.696744 0.893787 -0.846053 -2.066780 2.747421 3.093096 7.360950 12.350249 -1.383071 1.153834 12.724355 -16.522953 5.197962 0.181985 -67.966660 -14.104187 17.926824 0.451575 -18.978677 27.400517 -11.100440 4.434361 -9.979778 15.735886 -5.454888 -0.910081 68.113089 10.354264 17.906726 -5.782195 16.661653 6.836908 16.700914 2.156745 -25.209150 
-0.533733 0.252968 0.982181 94.042289 0.706470 89.641685 4.308054 0.403085 -5.236810 -5.479537 -7.647181 14.279031 1.923044 3.925044 -13.301136 0.000000 -0.000000 0.000000 -2.169395 -4.431753 -6.291076 0.317583 -1.327769 15.663531 2.504643 -4.013725 -15.678898 0.000000 -0.000000 0.000000 -0.241861 1.377007 -1.793068 3.174454 -3.666072 0.857763 -0.875394 -2.101582 2.939555 3.128246 7.337616 12.562628 -1.412306 1.059736 12.980569 -16.477612 5.276610 0.167991 -67.982517 -14.245675 17.909042 0.515937 -18.874792 27.207399 -10.883853 4.462036 -9.928724 15.830976 -5.522119 -1.079761 68.046740 10.380936 17.961662 -5.689946 16.554983 6.899466 16.588359 2.081768 -25.036280 
-0.535007 0.253344 0.982293 93.940792 0.765667 89.605811 4.317627 0.340795 -5.385028 -5.487938 -7.597167 14.501204 1.818145 4.071807 -13.264981 0.000000 -0.000000 0.000000 -2.082918 -4.274666 -6.361389 0.207213 -1.371066 15.696879 2.412901 -3.967203 -15.603082 0.000000 -0.000000 0.000000 -0.195594 1.348860 -1.533796 3.205840 -3.568022 0.838097 -0.829914 -2.045349 2.965794 3.062874 7.318387 12.927612 -1.513023 1.076767 13.263070 -16.422454 5.570162 0.253681 -68.116795 -14.056940 17.662561 1.051039 -19.350169 26.700971 -11.253742 4.458000 -10.138303 15.783979 -5.461739 -0.986020 68.019019 10.437990 17.942750 -5.739632 16.556223 6.882828 16.766973 2.119311 -25.136663 
-0.536174 0.253787 0.982445 93.870849 0.810608 89.675469 4.334164 0.078277 -5.686622 -5.509437 -7.373938 14.804130 1.805062 4.209105 -13.397626 0.000000 -0.000000 0.000000 -2.066748 -4.244672 -6.422134 0.186952 -1.396755 15.557534 2.470155 -3.817813 -15.718584 0.000000 -0.000000 0.000000 -0.143479 1.319540 -1.407763 3.187476 -3.508168 0.759956 -0.816056 -2.018103 3.157277 3.036939 7.294166 13.180747 -1.570446 1.174793 13.566812 -16.445977 6.351686 0.234146 -68.316472 -13.849346 17.247314 1.968332 -19.995237 25.411880 -11.064965 4.181225 -10.940878 15.824006 -5.724229 -1.063878 68.006283 10.572811 18.039007 -5.697423 16.492061 7.015634 16.757740 2.147133 -25.156965 
-0.537727 0.254432 0.982618 93.751767 0.870024 89.822297 4.337969 -0.100926 -6.115706 -5.525708 -7.202038 15.150468 1.867114 4.362968 -13.337837 0.000000 -0.000000 0.000000 -2.043666 -4.222372 -6.748966 0.217855 -1.381028 15.673868 2.492225 -3.840531 -15.636369 0.000000 -0.000000 0.000000 -0.042280 1.316628 -1.290657 3.185109 -3.354894 0.637302 -0.837062 -2.001438 3.395211 2.955285 7.194071 13.478141 -1.616107 1.237928 13.604007 -16.485931 7.193605 0.195778 -68.401372 -13.780454 16.814257 2.579791 -20.601606 24.213952 -11.249771 4.242515 -12.005366 15.867933 -6.165775 -1.185730 67.993942 10.746802 18.133786 -5.724282 16.473340 7.156944 16.779713 2.068358 -24.769817 
-0.539516 0.255209 0.982612 93.545448 0.920651 90.033250 4.338977 -0.349525 -6.588177 -5.519873 -6.933740 15.419340 1.912728 4.579090 -13.284201 0.000000 -0.000000 0.000000 -2.043562 -4.047106 -7.164110 0.252748 -1.454862 15.775251 2.534258 -3.803297 -15.626463 0.000000 -0.000000 0.000000 0.105981 1.230761 -0.948183 3.108164 -3.167382 0.256792 -0.870585 -1.862560 3.530577 2.978784 7.202310 13.703188 -1.657444 1.255755 13.792892 -16.430274 7.872407 0.176808 -68.304922 -13.603415 16.537432 2.825233 -21.034470 23.378437 -10.927923 4.037808 -12.485750 15.930474 -6.327820 -1.177319 67.959473 10.730149 18.267552 -5.632981 16.447042 6.873081 16.144971 1.882049 -24.887343 
-0.539738 0.255854 0.982725 92.908756 0.903706 90.032781 4.241116 -0.158708 -6.393219 -5.470476 -6.761005 15.203317 2.001314 4.781340 -13.244439 0.000000 -0.000000 0.000000 -2.151443 -4.103815 -7.293925 0.327162 -1.166329 15.792743 2.625239 -3.483039 -15.509009 0.000000 -0.000000 0.000000 0.103157 1.430255 -0.939370 3.038477 -2.944627 0.446773 -0.829137 -1.754032 3.573611 2.941671 7.306864 14.066696 -1.620810 1.459984 13.810502 -16.281422 8.143949 0.142491 -68.178631 -13.207346 16.274272 3.100265 -21.188112 22.946433 -10.633227 4.267236 -12.902619 15.910852 -6.315218 -0.969951 67.913326 10.809854 18.169629 -5.655623 16.560575 6.815855 16.173029 2.044735 -24.836918 
